# xmcd
#
# Track frame offsets: 
#        150
#        9750
#        23665
#        35342
#        45484
#        58055
#        67118
#        83293
#        89490
#        100842
#        113831
#        123413
#        130705
#        140064
#        155987
#        165629
#        188900
#        203704
#        214053
#
# Disc length: 3012 seconds
#
# Revision: 2
# Processed by: cddbd v1.5.2PL0 Copyright (c) Steve Scherf et al.
# Submitted via: ExactAudioCopy v0.99pb5
#
DISCID=fe0bc213
DTITLE=Glenn Miller - [CD 06-10] - The Call Of The Canyon
DYEAR=1900
DGENRE=Jazz
TTITLE0=Let's All Swing Together  [1940]
TTITLE1=Slip Horn Jive  [1940]
TTITLE2=T'Aint No Use At All  [1940]
TTITLE3=Boog It  [1940]
TTITLE4=Runnin' Wild  [1940]
TTITLE5=Outside Of That I Love You  [1940]
TTITLE6=St. Louis Blues [1940]
TTITLE7=Be Happy  [1940]
TTITLE8=Sophisticated Lady  [1940]
TTITLE9=April Play The Fiddle  [1940]
TTITLE10=Tiger Rag  [1940]
TTITLE11=Be Happy  [1940]
TTITLE12=In The Gloaming  [1940]
TTITLE13=Trade Winds  [1940]
TTITLE14=The Call Of The Canyon  [1940]
TTITLE15=Medley - Isn't It Romantic - Shadows On The Sand - Blue Prelud
TTITLE15=e  [1940]
TTITLE16=The Gentleman Need A Shave  [1940]
TTITLE17=Slumber Song  (Closing Theme Song)  [1940]
TTITLE18=On The Alamo  [1940]
EXTD=
EXTT0=
EXTT1=
EXTT2=
EXTT3=
EXTT4=
EXTT5=
EXTT6=
EXTT7=
EXTT8=
EXTT9=
EXTT10=
EXTT11=
EXTT12=
EXTT13=
EXTT14=
EXTT15=
EXTT16=
EXTT17=
EXTT18=
PLAYORDER=
